<svg width="183" height="11" viewBox="0 0 183 11" fill="none" xmlns="http://www.w3.org/2000/svg">
<path d="M2.03613 0.890625L4.36035 6.69141L6.68457 0.890625H7.90039V8H6.96289V5.23145L7.05078 2.24316L4.7168 8H3.99902L1.66992 2.25781L1.7627 5.23145V8H0.825195V0.890625H2.03613ZM14.9693 6.14453H11.9908L11.3219 8H10.3551L13.0699 0.890625H13.8902L16.61 8H15.648L14.9693 6.14453ZM12.274 5.37305H14.691L13.4801 2.04785L12.274 5.37305ZM20.8127 4.80664H19.9484V8H19.0109V0.890625H19.9484V4.02539H20.6809L23.1662 0.890625H24.3332L21.6184 4.33789L24.5334 8H23.3859L20.8127 4.80664ZM30.8113 4.71387H27.7303V7.2334H31.3094V8H26.7928V0.890625H31.2605V1.66211H27.7303V3.94727H30.8113V4.71387ZM38.8861 1.66211H36.601V8H35.6684V1.66211H33.3881V0.890625H38.8861V1.66211ZM46.8717 4.80664H46.0074V8H45.0699V0.890625H46.0074V4.02539H46.7398L49.2252 0.890625H50.3922L47.6773 4.33789L50.5924 8H49.4449L46.8717 4.80664ZM56.7775 6.14453H53.799L53.1301 8H52.1633L54.8781 0.890625H55.6984L58.4182 8H57.4562L56.7775 6.14453ZM54.0822 5.37305H56.4992L55.2883 2.04785L54.0822 5.37305ZM66.2391 8H65.2967V4.71387H61.7127V8H60.7752V0.890625H61.7127V3.94727H65.2967V0.890625H66.2391V8ZM73.3178 6.14453H70.3393L69.6703 8H68.7035L71.4184 0.890625H72.2387L74.9584 8H73.9965L73.3178 6.14453ZM70.6225 5.37305H73.0395L71.8285 2.04785L70.6225 5.37305ZM82.7793 0.890625V8H81.8418V1.66211H79.293L79.166 4.47949C79.1172 5.4235 79.0195 6.13314 78.873 6.6084C78.7298 7.08366 78.5182 7.43359 78.2383 7.6582C77.9583 7.87956 77.584 7.99349 77.1152 8H76.8076V7.2334L77.0029 7.22363C77.3057 7.20085 77.5384 7.10319 77.7012 6.93066C77.8639 6.75488 77.9876 6.47656 78.0723 6.0957C78.1569 5.71484 78.2171 5.12891 78.2529 4.33789L78.3994 0.890625H82.7793ZM89.8971 6.14453H86.9186L86.2496 8H85.2828L87.9977 0.890625H88.818L91.5377 8H90.5758L89.8971 6.14453ZM87.2018 5.37305H89.6188L88.4078 2.04785L87.2018 5.37305ZM105.436 5.54883C105.397 6.33659 105.202 6.95833 104.85 7.41406C104.499 7.86979 104.028 8.09766 103.439 8.09766C102.831 8.09766 102.44 7.82422 102.267 7.27734C102.092 7.55404 101.89 7.76074 101.662 7.89746C101.437 8.03092 101.205 8.09766 100.964 8.09766C100.501 8.09766 100.151 7.90885 99.9139 7.53125C99.6762 7.15365 99.5883 6.63118 99.6502 5.96387C99.699 5.42676 99.8211 4.94824 100.016 4.52832C100.215 4.10514 100.469 3.77311 100.778 3.53223C101.091 3.29134 101.418 3.1709 101.76 3.1709C102.023 3.1709 102.259 3.20671 102.468 3.27832C102.676 3.34668 102.91 3.4834 103.171 3.68848L102.917 6.39355C102.855 7.14551 103.063 7.52148 103.542 7.52148C103.91 7.52148 104.207 7.33919 104.435 6.97461C104.663 6.61003 104.787 6.13477 104.806 5.54883C104.868 4.28255 104.632 3.31738 104.098 2.65332C103.568 1.98926 102.759 1.65723 101.672 1.65723C101.017 1.65723 100.436 1.81999 99.9285 2.14551C99.4207 2.46777 99.0203 2.9349 98.7273 3.54688C98.4344 4.15885 98.27 4.86523 98.2342 5.66602C98.1951 6.47331 98.2928 7.1748 98.5271 7.77051C98.7615 8.36296 99.118 8.81543 99.5965 9.12793C100.078 9.44368 100.659 9.60156 101.34 9.60156C101.633 9.60156 101.926 9.56576 102.219 9.49414C102.515 9.42253 102.761 9.32975 102.956 9.21582L103.137 9.77734C102.935 9.9043 102.666 10.0085 102.331 10.0898C101.999 10.1712 101.662 10.2119 101.32 10.2119C100.506 10.2119 99.8064 10.028 99.2205 9.66016C98.6346 9.29557 98.1951 8.76823 97.9021 8.07812C97.6124 7.39128 97.4871 6.58724 97.5262 5.66602C97.5652 4.77083 97.7654 3.9668 98.1268 3.25391C98.4881 2.53776 98.978 1.986 99.5965 1.59863C100.215 1.20801 100.913 1.0127 101.691 1.0127C102.502 1.0127 103.197 1.19499 103.776 1.55957C104.356 1.92415 104.787 2.44987 105.07 3.13672C105.353 3.82357 105.475 4.6276 105.436 5.54883ZM100.427 5.96387C100.381 6.42611 100.423 6.78092 100.554 7.02832C100.687 7.27572 100.897 7.39941 101.183 7.39941C101.379 7.39941 101.566 7.31641 101.745 7.15039C101.927 6.98438 102.077 6.74674 102.194 6.4375L102.199 6.39355L102.424 3.9375C102.241 3.8431 102.046 3.7959 101.838 3.7959C101.457 3.7959 101.141 3.98958 100.89 4.37695C100.643 4.76432 100.488 5.29329 100.427 5.96387ZM112.08 4.86035H109.097V8H108.16V0.890625H112.564V1.66211H109.097V4.09375H112.08V4.86035ZM116.093 8H115.155V0.890625H116.093V8ZM124.461 7.06738C124.22 7.41243 123.883 7.67122 123.45 7.84375C123.02 8.01302 122.519 8.09766 121.946 8.09766C121.366 8.09766 120.852 7.96257 120.403 7.69238C119.954 7.41895 119.605 7.03158 119.358 6.53027C119.114 6.02897 118.989 5.44792 118.982 4.78711V4.16699C118.982 3.09603 119.231 2.26595 119.729 1.67676C120.23 1.08757 120.934 0.792969 121.838 0.792969C122.581 0.792969 123.178 0.983398 123.63 1.36426C124.083 1.74186 124.36 2.27897 124.461 2.97559H123.523C123.347 2.03483 122.787 1.56445 121.843 1.56445C121.215 1.56445 120.738 1.78581 120.413 2.22852C120.09 2.66797 119.928 3.30599 119.924 4.14258V4.72363C119.924 5.52116 120.107 6.15592 120.471 6.62793C120.836 7.09668 121.329 7.33105 121.951 7.33105C122.302 7.33105 122.61 7.29199 122.874 7.21387C123.137 7.13574 123.355 7.00391 123.528 6.81836V5.22168H121.882V4.45996H124.461V7.06738ZM128.639 0.890625L130.963 6.69141L133.287 0.890625H134.503V8H133.566V5.23145L133.654 2.24316L131.32 8H130.602L128.273 2.25781L128.365 5.23145V8H127.428V0.890625H128.639ZM141.572 6.14453H138.594L137.925 8H136.958L139.673 0.890625H140.493L143.213 8H142.251L141.572 6.14453ZM138.877 5.37305H141.294L140.083 2.04785L138.877 5.37305ZM149.994 8H145.335V7.35059L147.796 4.61621C148.161 4.2028 148.412 3.86751 148.548 3.61035C148.688 3.34993 148.758 3.08138 148.758 2.80469C148.758 2.43359 148.646 2.12923 148.421 1.8916C148.197 1.65397 147.897 1.53516 147.523 1.53516C147.074 1.53516 146.724 1.66374 146.473 1.9209C146.226 2.1748 146.102 2.52962 146.102 2.98535H145.199C145.199 2.33105 145.409 1.80208 145.829 1.39844C146.252 0.994792 146.816 0.792969 147.523 0.792969C148.184 0.792969 148.706 0.967122 149.09 1.31543C149.474 1.66048 149.666 2.12109 149.666 2.69727C149.666 3.39714 149.22 4.23047 148.329 5.19727L146.424 7.2627H149.994V8ZM158.049 8H157.106V4.71387H153.522V8H152.585V0.890625H153.522V3.94727H157.106V0.890625H158.049V8ZM165.879 1.66211H163.594V8H162.662V1.66211H160.381V0.890625H165.879V1.66211ZM169.545 0.890625L171.869 6.69141L174.194 0.890625H175.409V8H174.472V5.23145L174.56 2.24316L172.226 8H171.508L169.179 2.25781L169.272 5.23145V8H168.334V0.890625H169.545ZM179.407 7.2334H182.776V8H178.465V0.890625H179.407V7.2334Z" fill="#E4E4E4"/>
</svg>
