<svg width="100" height="100" viewBox="0 0 100 100" fill="none" xmlns="http://www.w3.org/2000/svg">
<path d="M74.95 10.8722C55.7389 11.2306 42.3611 1.525 33.1028 1.7C23.8445 1.875 4.50281 7.55833 5.30003 50.1444C6.09725 92.7305 32.3667 98.4889 42.55 98.3C90.2278 97.4083 108.969 10.2361 74.95 10.8722Z" fill="#EFEFEF"/>
<path d="M18.3491 9.46973L22.2775 5.54136L24.2416 7.50554L20.3133 11.4339L18.3491 9.46973Z" fill="#A4AFC1"/>
<path d="M7.05463 20.7623L10.985 16.832L12.9491 18.7962L9.01881 22.7265L7.05463 20.7623Z" fill="#A4AFC1"/>
<path d="M7.05798 7.01566L9.02217 5.05147L12.9525 8.9818L10.9883 10.946L7.05798 7.01566Z" fill="#A4AFC1"/>
<path d="M92.3028 42.8972C90.0056 42.8972 88.1362 41.0278 88.1362 38.7306C88.1362 36.4333 90.0056 34.5639 92.3028 34.5639C94.6001 34.5639 96.4695 36.4333 96.4695 38.7306C96.4695 41.0278 94.6001 42.8972 92.3028 42.8972ZM92.3028 37.3417C91.5389 37.3417 90.9139 37.9639 90.9139 38.7306C90.9139 39.4972 91.5389 40.1195 92.3028 40.1195C93.0667 40.1195 93.6917 39.4972 93.6917 38.7306C93.6917 37.9639 93.0667 37.3417 92.3028 37.3417Z" fill="#A4AFC1"/>
<path d="M78.4722 31.25H21.5278C19.9944 31.25 18.75 30.0056 18.75 28.4722V21.5278C18.75 19.9944 19.9944 18.75 21.5278 18.75H78.4722C80.0056 18.75 81.25 19.9944 81.25 21.5278V28.4722C81.25 30.0056 80.0056 31.25 78.4722 31.25Z" fill="#EE4248"/>
<path d="M75 56.25C71.5472 56.25 68.75 53.4528 68.75 50C68.75 46.5472 71.5472 43.75 75 43.75C78.4528 43.75 81.25 46.5472 81.25 50C81.25 53.4528 78.4528 56.25 75 56.25Z" fill="#EE4248"/>
<path d="M75 81.25C71.5472 81.25 68.75 78.4528 68.75 75C68.75 71.5472 71.5472 68.75 75 68.75C78.4528 68.75 81.25 71.5472 81.25 75C81.25 78.4528 78.4528 81.25 75 81.25Z" fill="#EE4248"/>
<path d="M25 28.4722V21.5278C25 19.9944 26.2444 18.75 27.7778 18.75H21.5278C19.9944 18.75 18.75 19.9944 18.75 21.5278V28.4722C18.75 30.0056 19.9944 31.25 21.5278 31.25H27.7778C26.2444 31.25 25 30.0056 25 28.4722Z" fill="#D5DBE1"/>
<path d="M75 50C75 47.6917 76.2639 45.7 78.125 44.6167C77.2028 44.0806 76.1444 43.75 75 43.75C71.5472 43.75 68.75 46.5472 68.75 50C68.75 53.4528 71.5472 56.25 75 56.25C76.1444 56.25 77.2028 55.9194 78.125 55.3833C76.2639 54.3 75 52.3083 75 50Z" fill="#EE4248"/>
<path d="M75 75C75 72.6917 76.2639 70.7 78.125 69.6167C77.2028 69.0806 76.1444 68.75 75 68.75C71.5472 68.75 68.75 71.5472 68.75 75C68.75 78.4528 71.5472 81.25 75 81.25C76.1444 81.25 77.2028 80.9194 78.125 80.3833C76.2639 79.3 75 77.3083 75 75Z" fill="#EE4248"/>
<path d="M78.4722 33.3334H21.5278C18.8472 33.3334 16.6667 31.1528 16.6667 28.4722V21.5278C16.6667 18.8472 18.8472 16.6667 21.5278 16.6667H78.4722C81.1528 16.6667 83.3333 18.8472 83.3333 21.5278V28.4722C83.3333 31.1528 81.1528 33.3334 78.4722 33.3334ZM21.5278 20.8334C21.1445 20.8334 20.8334 21.1445 20.8334 21.5278V28.4722C20.8334 28.8556 21.1445 29.1667 21.5278 29.1667H78.4722C78.8556 29.1667 79.1667 28.8556 79.1667 28.4722V21.5278C79.1667 21.1445 78.8556 20.8334 78.4722 20.8334H21.5278Z" fill="black"/>
<path d="M18.75 44.4445H59.0278V48.6111H18.75V44.4445Z" fill="black"/>
<path d="M18.75 52.7778H59.0278V56.9444H18.75V52.7778Z" fill="black"/>
<path d="M18.75 69.4444H59.0278V73.6111H18.75V69.4444Z" fill="black"/>
<path d="M18.75 77.7778H59.0278V81.9445H18.75V77.7778Z" fill="black"/>
<path d="M75 58.3334C70.4056 58.3334 66.6667 54.5945 66.6667 50.0001C66.6667 45.4056 70.4056 41.6667 75 41.6667C79.5945 41.6667 83.3334 45.4056 83.3334 50.0001C83.3334 54.5945 79.5945 58.3334 75 58.3334ZM75 45.8334C72.7028 45.8334 70.8334 47.7028 70.8334 50.0001C70.8334 52.2973 72.7028 54.1667 75 54.1667C77.2972 54.1667 79.1667 52.2973 79.1667 50.0001C79.1667 47.7028 77.2972 45.8334 75 45.8334Z" fill="black"/>
<path d="M75 83.3334C70.4056 83.3334 66.6667 79.5945 66.6667 75C66.6667 70.4056 70.4056 66.6667 75 66.6667C79.5945 66.6667 83.3334 70.4056 83.3334 75C83.3334 79.5945 79.5945 83.3334 75 83.3334ZM75 70.8334C72.7028 70.8334 70.8334 72.7028 70.8334 75C70.8334 77.2973 72.7028 79.1667 75 79.1667C77.2972 79.1667 79.1667 77.2973 79.1667 75C79.1667 72.7028 77.2972 70.8334 75 70.8334Z" fill="black"/>
</svg>
