<svg width="100" height="100" viewBox="0 0 100 100" fill="none" xmlns="http://www.w3.org/2000/svg">
<path d="M23.2695 88.425C42.4833 88.425 55.6778 98.3778 64.9361 98.3778C74.1945 98.3778 93.6389 93.0556 93.6389 50.4639C93.6389 7.87222 67.4806 1.61945 57.2972 1.61945C9.61113 1.61945 -10.7583 88.425 23.2695 88.425Z" fill="#EFEFEF"/>
<path d="M88.8005 21.3403L90.7647 19.3761L94.6931 23.3045L92.7289 25.2686L88.8005 21.3403Z" fill="#A4AFC1"/>
<path d="M77.5079 10.0458L79.4721 8.08165L83.4005 12.01L81.4363 13.9742L77.5079 10.0458Z" fill="#A4AFC1"/>
<path d="M88.8018 12.5027L92.7302 8.57435L94.6944 10.5385L90.766 14.4669L88.8018 12.5027Z" fill="#A4AFC1"/>
<path d="M54.861 72.9166C54.861 72.9166 55.5416 77.8194 58.9722 81.25H59.0277H40.9722C44.4444 77.7777 45.0833 72.9166 45.0833 72.9166H54.861Z" fill="#EE4248"/>
<path d="M78.4722 29.8611C80 29.8611 81.25 31.1111 81.25 32.6389V63.1945H18.75V32.6389C18.75 31.1111 20 29.8611 21.5278 29.8611H78.4722Z" fill="#F3F3F1"/>
<path d="M21.5278 72.9167H78.4722C80.0056 72.9167 81.25 71.6722 81.25 70.1389V63.1945H18.75V70.1389C18.75 71.6722 19.9944 72.9167 21.5278 72.9167Z" fill="#EE4248"/>
<path d="M69.4445 39.5833C73.6634 39.5833 77.0834 36.1633 77.0834 31.9444C77.0834 27.7256 73.6634 24.3055 69.4445 24.3055C65.2257 24.3055 61.8057 27.7256 61.8057 31.9444C61.8057 36.1633 65.2257 39.5833 69.4445 39.5833Z" fill="#EE4248"/>
<path d="M32.7889 56.25C29.6306 56.25 27.0834 53.8306 27.0834 50.8333C27.0834 47.8361 29.6334 45.4167 32.7889 45.4167H32.8917C33.5 41.325 37.1917 38.1945 41.6667 38.1945C45.2167 38.1945 48.2862 40.1695 49.6945 43.0333C53.3584 43.225 56.2501 46.1028 56.2501 49.6306C56.2501 53.2889 53.1306 56.25 49.2751 56.25H32.7889Z" fill="#EE4248"/>
<path d="M45.0833 72.9166C45.0833 72.9166 44.4444 77.7777 40.9722 81.25H47.2222C50.6944 77.7777 51.3333 72.9166 51.3333 72.9166H45.0833Z" fill="#EE4248"/>
<path d="M25 70.1389V63.1945H18.75V70.1389C18.75 71.6722 19.9944 72.9167 21.5278 72.9167H27.7778C26.2444 72.9167 25 71.6722 25 70.1389Z" fill="#EE4248"/>
<path d="M68.0557 31.9444C68.0557 28.8417 69.914 26.1833 72.5696 24.9889C71.614 24.5583 70.5612 24.3055 69.4446 24.3055C65.2251 24.3055 61.8057 27.725 61.8057 31.9444C61.8057 36.1639 65.2251 39.5833 69.4446 39.5833C70.5612 39.5833 71.614 39.3305 72.5696 38.9C69.914 37.7055 68.0557 35.0472 68.0557 31.9444Z" fill="#EE4248"/>
<path d="M33.3334 50.8333C33.3334 47.8361 35.8834 45.4167 39.0389 45.4167H39.1417C39.6 42.3417 41.7973 39.8111 44.7612 38.7417C43.7945 38.4 42.7584 38.1945 41.6667 38.1945C37.1889 38.1945 33.5 41.325 32.8917 45.4167H32.7889C29.6306 45.4167 27.0834 47.8361 27.0834 50.8333C27.0834 53.8306 29.6334 56.25 32.7889 56.25H39.0389C35.8834 56.25 33.3334 53.8306 33.3334 50.8333Z" fill="#EE4248"/>
<path d="M27.7778 29.8611H21.5278C20 29.8611 18.75 31.1111 18.75 32.6389V63.1945H25V32.6389C25 31.1111 26.25 29.8611 27.7778 29.8611Z" fill="#D5DBE1"/>
<path d="M78.4722 75H21.5277C18.8472 75 16.6666 72.8195 16.6666 70.1389V32.6389C16.6666 29.9583 18.8472 27.7778 21.5277 27.7778H50V31.9444H21.5277C21.15 31.9444 20.8333 32.2611 20.8333 32.6389V70.1389C20.8333 70.5167 21.15 70.8333 21.5277 70.8333H78.4722C78.85 70.8333 79.1666 70.5167 79.1666 70.1389V47.2222H83.3333V70.1389C83.3333 72.8195 81.1527 75 78.4722 75Z" fill="black"/>
<path d="M18.75 61.1111H81.25V65.2777H18.75V61.1111Z" fill="black"/>
<path d="M59.0277 83.3334H40.9721C40.1277 83.3334 39.3694 82.825 39.0471 82.0473C38.7277 81.2695 38.9027 80.3723 39.4999 79.7778C42.4055 76.8723 43.0166 72.6806 43.0221 72.6389L47.1499 73.1889C47.1305 73.3528 46.7416 76.15 45.086 79.1667H54.8694C53.2277 76.1667 52.8221 73.3667 52.7971 73.2056L56.9221 72.625C56.9305 72.6667 57.5416 76.6778 60.2166 79.5389C60.7583 79.9167 61.111 80.5417 61.111 81.25C61.111 82.4 60.1777 83.3334 59.0277 83.3334Z" fill="black"/>
<path d="M69.4444 41.6667C64.0833 41.6667 59.7222 37.3056 59.7222 31.9445C59.7222 26.5833 64.0833 22.2222 69.4444 22.2222C74.8055 22.2222 79.1666 26.5833 79.1666 31.9445C79.1666 37.3056 74.8055 41.6667 69.4444 41.6667ZM69.4444 26.3889C66.3805 26.3889 63.8888 28.8806 63.8888 31.9445C63.8888 35.0083 66.3805 37.5 69.4444 37.5C72.5083 37.5 75 35.0083 75 31.9445C75 28.8806 72.5083 26.3889 69.4444 26.3889Z" fill="black"/>
<path d="M67.3611 37.5H71.5277V47.2222H67.3611V37.5Z" fill="black"/>
<path d="M67.3611 16.6667H71.5277V26.3889H67.3611V16.6667Z" fill="black"/>
<path d="M73.2604 27.2522L82.1294 22.506L84.0947 26.1786L75.2257 30.9248L73.2604 27.2522Z" fill="black"/>
<path d="M54.8456 37.6523L63.7145 32.9061L65.6799 36.5786L56.8109 41.3249L54.8456 37.6523Z" fill="black"/>
<path d="M54.8517 26.2177L56.817 22.5451L65.686 27.2914L63.7207 30.9639L54.8517 26.2177Z" fill="black"/>
<path d="M73.2767 36.6083L75.2421 32.9358L84.1111 37.682L82.1457 41.3545L73.2767 36.6083Z" fill="black"/>
<path d="M49.2778 58.3333H32.7778C28.4889 58.3333 25 54.9694 25 50.8333C25 47.2139 27.6722 44.1861 31.2111 43.4833C32.6139 39.1833 36.8417 36.1111 41.6667 36.1111C44.7389 36.1111 47.6805 37.35 49.7333 39.5111L46.7111 42.3805C45.4417 41.0444 43.6028 40.2778 41.6667 40.2778C38.3 40.2778 35.4139 42.6194 34.95 45.725C34.7944 46.7444 33.9194 47.5 32.8889 47.5C30.7861 47.5 29.1667 48.9944 29.1667 50.8333C29.1667 52.6722 30.7861 54.1666 32.7778 54.1666H49.2778C51.975 54.1666 54.1667 52.1361 54.1667 49.6389C54.1667 49.2639 54.1278 48.9611 54.05 48.6778L58.0583 47.5444C58.2444 48.1972 58.3333 48.8833 58.3333 49.6389C58.3333 54.4333 54.2722 58.3333 49.2778 58.3333Z" fill="black"/>
</svg>
