<svg width="453" height="430" viewBox="0 0 453 430" fill="none" xmlns="http://www.w3.org/2000/svg">
<path d="M303.834 312.856C302.469 311.343 305.687 302.508 320.959 301.883C336.23 301.257 342.348 306.818 342.37 312.856C342.382 315.528 303.834 312.856 303.834 312.856Z" fill="#455A64"/>
<path d="M296.295 81.7055L279.329 186.626H434.271L452.942 80.5798L296.295 81.7055Z" fill="#F5F5F5"/>
<path d="M294.748 91.2458C294.817 90.8819 451.168 90.6545 451.168 90.6545L452.942 80.5798L296.295 81.7169L294.748 91.2685" fill="#E0E0E0"/>
<path d="M302.845 86.4245C302.847 86.7106 302.764 86.9909 302.607 87.2298C302.45 87.4688 302.225 87.6557 301.961 87.7667C301.697 87.8778 301.407 87.908 301.126 87.8536C300.845 87.7991 300.587 87.6625 300.383 87.461C300.18 87.2595 300.042 87.0022 299.985 86.7218C299.928 86.4413 299.956 86.1504 300.065 85.8859C300.174 85.6213 300.359 85.3951 300.597 85.2359C300.835 85.0767 301.114 84.9917 301.401 84.9917C301.59 84.9902 301.777 85.0262 301.952 85.0975C302.127 85.1688 302.287 85.2741 302.421 85.4073C302.555 85.5405 302.662 85.699 302.734 85.8735C302.807 86.0481 302.845 86.2353 302.845 86.4245Z" fill="#263238"/>
<path d="M309.895 86.4245C309.895 86.7078 309.811 86.9849 309.653 87.2205C309.496 87.4561 309.272 87.6397 309.01 87.7482C308.748 87.8566 308.46 87.885 308.182 87.8297C307.904 87.7744 307.649 87.638 307.449 87.4376C307.248 87.2372 307.112 86.9819 307.057 86.704C307.001 86.4261 307.03 86.138 307.138 85.8762C307.247 85.6144 307.43 85.3906 307.666 85.2332C307.902 85.0758 308.179 84.9917 308.462 84.9917C308.842 84.9917 309.206 85.1427 309.475 85.4114C309.744 85.6801 309.895 86.0445 309.895 86.4245Z" fill="#263238"/>
<path d="M316.956 86.4245C316.958 86.7106 316.876 86.9909 316.718 87.2298C316.561 87.4688 316.336 87.6557 316.073 87.7667C315.809 87.8778 315.518 87.908 315.237 87.8536C314.956 87.7991 314.698 87.6625 314.495 87.461C314.292 87.2595 314.153 87.0022 314.096 86.7218C314.04 86.4413 314.068 86.1504 314.177 85.8859C314.286 85.6213 314.471 85.3951 314.708 85.2359C314.946 85.0767 315.226 84.9917 315.512 84.9917C315.701 84.9902 315.889 85.0262 316.064 85.0975C316.239 85.1688 316.398 85.2741 316.532 85.4073C316.667 85.5405 316.773 85.699 316.846 85.8735C316.919 86.0481 316.956 86.2353 316.956 86.4245Z" fill="#263238"/>
<path d="M334.456 138.379L315.068 160.802C311.408 158.319 308.4 154.989 306.299 151.095C304.199 147.201 303.069 142.859 303.004 138.436C303.004 122.846 317.206 110.008 334.456 110.008C351.706 110.008 365.908 122.834 365.908 138.436L334.456 138.379Z" fill="#EE4248"/>
<path d="M336.946 141.938C336.852 142.097 336.741 142.245 336.617 142.381L335.605 143.587L331.761 148.135C328.418 152.047 323.665 157.573 317.968 164.225V163.861C322.263 166.818 327.226 168.662 332.409 169.228C338.261 169.903 344.188 169.008 349.58 166.636C354.726 164.4 359.17 160.813 362.44 156.254C363.914 154.128 365.095 151.814 365.954 149.374C366.703 147.095 367.158 144.73 367.307 142.336L367.557 142.597L345.384 142.222L339.152 142.086L337.504 142.029C337.311 142.047 337.116 142.047 336.924 142.029C337.105 142.011 337.288 142.011 337.469 142.029H339.095H345.293L367.557 142.177H367.83V142.45C367.701 144.897 367.25 147.317 366.488 149.647C365.625 152.14 364.427 154.504 362.929 156.675C359.599 161.355 355.048 165.032 349.773 167.307C344.281 169.709 338.25 170.612 332.296 169.922C327.024 169.324 321.983 167.425 317.627 164.396L317.4 164.236L317.581 164.02L331.613 148.021L335.536 143.587L336.582 142.45C336.689 142.269 336.81 142.097 336.946 141.938Z" fill="#263238"/>
<path d="M347.828 123.255C348.802 123.255 349.591 122.466 349.591 121.493C349.591 120.519 348.802 119.73 347.828 119.73C346.855 119.73 346.066 120.519 346.066 121.493C346.066 122.466 346.855 123.255 347.828 123.255Z" fill="#263238"/>
<path d="M384.602 108.598C384.053 108.683 383.498 108.721 382.942 108.712L378.394 108.803C374.584 108.803 369.297 108.894 363.509 108.894H360.735L360.939 108.814C357.289 112.453 354.037 115.637 351.683 117.911L348.897 120.572C348.579 120.917 348.22 121.223 347.828 121.481C348.104 121.103 348.413 120.749 348.749 120.424C349.443 119.685 350.341 118.752 351.41 117.638C353.684 115.284 356.891 112.032 360.507 108.371L360.587 108.291H363.577C369.388 108.291 374.653 108.291 378.462 108.371L383.01 108.473C383.544 108.464 384.077 108.506 384.602 108.598Z" fill="#263238"/>
<path d="M424.537 130.749C424.545 130.546 424.571 130.344 424.617 130.146C424.685 129.737 424.776 129.18 424.901 128.463L426.038 122.107L430.143 99.2965L430.382 99.5808L386.342 99.6376L386.626 99.3988V99.5125V99.649V99.9105L386.524 100.434L386.331 101.491L385.944 103.583C385.682 104.971 385.432 106.347 385.171 107.711C384.67 110.44 384.174 113.124 383.681 115.762C382.692 121.015 381.748 125.996 380.873 130.783L380.6 130.464L412.325 130.59L421.422 130.669H423.844H424.469H424.696H424.503H423.9H421.524L412.518 130.737L380.679 130.862H380.361L380.418 130.544C381.293 125.802 382.214 120.765 383.192 115.5C383.67 112.873 384.17 110.19 384.67 107.461C384.932 106.085 385.182 104.709 385.444 103.322C385.569 102.628 385.694 101.935 385.83 101.23L386.024 100.183L386.115 99.6603L386.171 99.3874V99.2624V99.16L386.467 98.9099L430.507 98.9667H430.666L430.609 99.251C428.79 108.769 427.289 116.626 426.243 122.141C425.708 124.836 425.299 126.951 425.003 128.44L424.674 130.066C424.583 130.578 424.537 130.76 424.537 130.749Z" fill="#263238"/>
<path d="M350.592 158.71C351.565 158.71 352.354 157.921 352.354 156.948C352.354 155.974 351.565 155.185 350.592 155.185C349.618 155.185 348.829 155.974 348.829 156.948C348.829 157.921 349.618 158.71 350.592 158.71Z" fill="#263238"/>
<path d="M382.59 156.948C382.59 157.118 375.426 157.243 366.591 157.243C357.755 157.243 350.591 157.118 350.591 156.948C350.591 156.777 357.755 156.652 366.591 156.652C375.426 156.652 382.59 156.788 382.59 156.948Z" fill="#263238"/>
<path d="M424.537 170.684C424.551 170.538 424.578 170.393 424.617 170.252C424.685 169.945 424.776 169.535 424.901 169.024C425.163 167.886 425.538 166.374 426.038 164.396C427.028 160.37 428.438 154.628 430.177 147.566L430.393 147.839L384.977 147.908L385.262 147.692V147.76V147.851V148.044L385.159 148.431L384.966 149.181L384.591 150.705C384.329 151.706 384.079 152.706 383.829 153.707L382.214 159.665C381.236 163.52 380.293 167.25 379.383 170.809L379.121 170.468L411.699 170.593L421.115 170.661H423.639H424.298H424.537H424.333H423.696H421.228L411.859 170.729L379.121 170.854H378.758L378.848 170.502C379.747 166.943 380.679 163.202 381.646 159.347C382.131 157.414 382.627 155.454 383.135 153.468L383.886 150.466L384.272 148.954L384.466 148.192L384.557 147.805V147.623V147.521V147.453L384.841 147.225L430.257 147.305H430.666L430.598 147.578C428.756 154.673 427.266 160.438 426.22 164.475C425.697 166.42 425.288 167.955 425.003 169.024C424.867 169.513 424.765 169.899 424.685 170.161C424.605 170.422 424.537 170.695 424.537 170.684Z" fill="#263238"/>
<path d="M420.955 108.996C420.955 109.167 414.212 109.292 405.889 109.292C397.565 109.292 390.822 109.167 390.822 108.996C390.822 108.825 397.565 108.7 405.889 108.7C414.212 108.7 420.955 108.837 420.955 108.996Z" fill="#263238"/>
<path d="M420.603 113.931C420.603 114.102 413.78 114.227 405.457 114.227C397.133 114.227 390.299 114.102 390.299 113.931C390.299 113.76 397.122 113.635 405.457 113.635C413.792 113.635 420.603 113.772 420.603 113.931Z" fill="#263238"/>
<path d="M419.727 118.73C419.727 118.889 413.178 119.025 405.104 119.025C397.031 119.025 390.47 118.889 390.47 118.73C390.47 118.57 397.019 118.434 405.104 118.434C413.189 118.434 419.727 118.525 419.727 118.73Z" fill="#263238"/>
<path d="M420.25 156.402C420.25 156.561 413.826 156.697 405.889 156.697C397.952 156.697 391.527 156.561 391.527 156.402C391.527 156.243 397.963 156.106 405.889 156.106C413.814 156.106 420.25 156.254 420.25 156.402Z" fill="#263238"/>
<path d="M418.488 161.86C418.488 162.03 413.007 162.156 406.241 162.156C399.476 162.156 393.995 162.03 393.995 161.86C393.995 161.689 399.476 161.564 406.241 161.564C413.007 161.564 418.488 161.701 418.488 161.86Z" fill="#263238"/>
<path d="M235.471 276.105C234.925 279.3 219.756 312.867 229.547 312.867H278.761C278.761 312.867 273.678 308.091 289.063 276.105H235.471Z" fill="#455A64"/>
<path d="M203.632 164.066L183.517 281.62H353.184L373.993 159.938L203.632 164.066Z" fill="#455A64"/>
<path d="M209.398 169.797L192.443 274.729H347.374L366.045 168.682L209.398 169.797Z" fill="#FAFAFA"/>
<path d="M373.993 159.938L377.2 162.099L355.595 284.815H187.997L183.517 281.62H353.184L373.993 159.938Z" fill="#263238"/>
<path d="M207.862 179.348C207.919 178.973 364.271 178.757 364.271 178.757L366.045 168.682L209.398 169.82L207.862 179.371" fill="#EBEBEB"/>
<path d="M322.96 265.416V265.12L323.096 264.245C323.24 263.411 323.434 262.274 323.676 260.833C324.211 257.774 324.961 253.385 325.894 247.939C327.827 236.909 330.522 221.558 333.58 204.137V203.887H346.384L346.327 204.24C341.586 229.927 337.435 252.498 335.036 265.473V265.609H334.911L325.996 265.518H323.722H323.165H323.779H326.132L334.945 265.427L334.786 265.552L345.793 204.274L346.089 204.615H333.899L334.183 204.376C331.033 221.694 328.27 236.943 326.223 247.916C325.223 253.374 324.404 257.774 323.835 260.845C323.551 262.334 323.335 263.505 323.176 264.347C323.096 264.722 323.039 265.029 322.994 265.257C322.985 265.31 322.973 265.363 322.96 265.416Z" fill="#263238"/>
<path d="M303.311 265.416C303.326 265.139 303.368 264.865 303.436 264.597C303.538 263.994 303.686 263.187 303.868 262.164C304.277 259.969 304.846 256.865 305.562 253.067C307.052 245.187 309.133 234.225 311.509 221.694V221.455H324.313L324.245 221.808C320.652 239.626 317.422 255.466 315.421 265.507V265.655H315.273L306.37 265.552H304.095C303.842 265.569 303.587 265.569 303.334 265.552H304.175H306.54L315.319 265.45L315.137 265.598C317.115 255.546 320.231 239.695 323.733 221.853L324.017 222.206H311.759L312.044 221.978C309.576 234.396 307.416 245.266 305.858 253.078C305.073 256.956 304.448 260.071 303.993 262.266L303.481 264.756C303.481 265.018 303.368 265.234 303.334 265.404L303.311 265.416Z" fill="#263238"/>
<path d="M283.582 265.416C283.572 265.295 283.572 265.173 283.582 265.052L283.764 263.915C283.935 262.914 284.173 261.481 284.492 259.639C285.151 255.876 286.095 250.452 287.278 243.72C289.688 230.075 293.043 211.187 296.841 189.776V189.537H309.644L309.588 189.878C303.652 222.388 298.41 250.713 295.635 265.416V265.541H295.51L286.561 265.45H284.287H283.537H284.344H286.675L295.522 265.37L295.385 265.484C297.978 250.702 303.095 222.399 309.03 189.901L309.326 190.253H297.17L297.455 190.003C293.577 211.301 290.143 230.131 287.664 243.674C286.413 250.429 285.39 255.875 284.708 259.651L283.889 263.983C283.798 264.461 283.73 264.836 283.673 265.12L283.582 265.416Z" fill="#263238"/>
<path d="M263.887 265.416C263.896 265.225 263.919 265.035 263.956 264.847C264.035 264.404 264.126 263.847 264.24 263.142C264.501 261.572 264.877 259.389 265.377 256.671C266.366 251.043 267.742 243.231 269.323 234.202V233.964H282.115L282.047 234.316C279.693 246.597 277.578 257.649 276.077 265.461V265.632H275.918L267.049 265.518L264.649 265.416C264.388 265.432 264.126 265.432 263.865 265.416H264.729H267.128L275.861 265.302L275.656 265.461C277.112 257.649 279.17 246.574 281.444 234.282L281.74 234.634H269.562L269.834 234.407C268.152 243.333 266.707 251.054 265.65 256.615C265.127 259.344 264.695 261.55 264.388 263.13C264.24 263.847 264.126 264.438 264.035 264.881C263.996 265.062 263.947 265.241 263.887 265.416Z" fill="#263238"/>
<path d="M244.181 265.416C244.181 265.416 244.181 265.336 244.181 265.177C244.181 265.018 244.181 264.734 244.284 264.438C244.398 263.744 244.545 262.789 244.739 261.561C245.159 259.003 245.751 255.341 246.49 250.793C248.036 241.537 250.174 228.665 252.619 214.007V213.769H265.423L265.354 214.121C261.602 235.305 258.293 254.033 256.258 265.45V265.598H256.121L247.229 265.495H244.898C244.644 265.512 244.39 265.512 244.136 265.495H244.352H244.966H247.331L256.121 265.404L255.951 265.541L264.797 214.167L265.093 214.519H252.96L253.244 214.28C250.708 228.835 248.48 241.571 246.876 250.793C246.058 255.341 245.41 259.037 244.943 261.618C244.716 262.857 244.545 263.892 244.409 264.54L244.261 265.313L244.181 265.416Z" fill="#263238"/>
<path d="M224.51 265.416C224.495 265.306 224.495 265.195 224.51 265.086C224.51 264.836 224.601 264.506 224.669 264.085C224.828 263.164 225.044 261.811 225.328 260.174C225.908 256.762 226.761 251.771 227.807 245.607C229.968 233.156 232.981 215.827 236.392 196.212V195.973H249.196L249.139 196.325C243.84 225.799 239.155 251.566 236.574 265.45V265.575H236.449L227.523 265.484H225.249H224.703H225.306H227.637L236.472 265.393L236.324 265.518C238.735 251.6 243.306 225.811 248.605 196.348L248.889 196.689H236.711L236.995 196.451C233.504 215.963 230.411 233.19 228.194 245.573C227.057 251.759 226.158 256.728 225.522 260.185C225.215 261.891 224.964 263.21 224.794 264.154C224.703 264.586 224.646 264.927 224.589 265.188C224.532 265.45 224.51 265.416 224.51 265.416Z" fill="#263238"/>
<path d="M215.947 174.527C215.949 174.813 215.867 175.094 215.709 175.333C215.552 175.572 215.327 175.758 215.064 175.869C214.8 175.98 214.509 176.011 214.228 175.956C213.948 175.902 213.689 175.765 213.486 175.564C213.283 175.362 213.144 175.105 213.088 174.824C213.031 174.544 213.059 174.253 213.168 173.989C213.277 173.724 213.462 173.498 213.7 173.339C213.937 173.179 214.217 173.094 214.503 173.094C214.884 173.094 215.25 173.245 215.52 173.513C215.791 173.782 215.944 174.146 215.947 174.527Z" fill="#263238"/>
<path d="M221.564 175.96C222.356 175.96 222.997 175.318 222.997 174.527C222.997 173.736 222.356 173.094 221.564 173.094C220.773 173.094 220.132 173.736 220.132 174.527C220.132 175.318 220.773 175.96 221.564 175.96Z" fill="#263238"/>
<path d="M230.059 174.527C230.061 174.814 229.978 175.094 229.82 175.334C229.662 175.573 229.437 175.76 229.172 175.87C228.908 175.981 228.617 176.011 228.336 175.955C228.054 175.9 227.796 175.762 227.593 175.56C227.391 175.357 227.253 175.099 227.198 174.817C227.142 174.536 227.172 174.245 227.283 173.981C227.393 173.716 227.58 173.491 227.819 173.333C228.059 173.175 228.339 173.092 228.626 173.094C229.005 173.097 229.368 173.249 229.636 173.517C229.904 173.785 230.056 174.148 230.059 174.527Z" fill="#263238"/>
<path d="M204.815 265.416C204.815 265.416 204.815 265.12 204.94 264.54C205.065 263.96 205.179 263.051 205.361 261.959C205.759 259.685 206.316 256.353 207.01 252.271C208.465 243.925 210.478 232.326 212.786 219.09V218.851H225.59L225.522 219.204C222.008 238.148 218.881 254.954 216.936 265.461V265.609H216.8L207.896 265.507H205.622C205.365 265.523 205.107 265.523 204.849 265.507H205.076H205.69H208.056L216.845 265.404L216.664 265.552L225.021 219.261L225.306 219.602H213.07L213.355 219.363C210.955 232.497 208.806 244.004 207.351 252.271C206.577 256.376 205.963 259.685 205.52 262.004C205.315 263.142 205.145 264.006 205.02 264.643L204.883 265.336C204.862 265.364 204.839 265.39 204.815 265.416Z" fill="#263238"/>
<path d="M337.731 219.147H272.825L276.532 197.36H341.893L337.731 219.147Z" fill="#EE4248"/>
<path d="M272.825 219.147L271.563 226.754C271.563 226.754 280.091 218.851 279.955 218.851H272.882" fill="#EE4248"/>
<path d="M332.102 204.933C332.102 205.093 321.288 205.229 307.962 205.229C294.635 205.229 283.81 205.093 283.81 204.933C283.81 204.774 294.623 204.638 307.962 204.638C321.3 204.638 332.102 204.774 332.102 204.933Z" fill="#FAFAFA"/>
<path d="M331.465 210.198C331.465 210.357 320.652 210.494 307.325 210.494C293.998 210.494 283.173 210.357 283.173 210.198C283.173 210.039 293.987 209.902 307.325 209.902C320.663 209.902 331.465 210.028 331.465 210.198Z" fill="#FAFAFA"/>
<path d="M437.625 320.395H252.71V428.294H437.625V320.395Z" fill="#263238"/>
<path d="M336.946 320.395H252.71V428.294H336.946V320.395Z" fill="#455A64"/>
<path d="M328.327 357.044C328.327 357.044 328.327 356.85 328.327 356.498C328.327 356.145 328.327 355.599 328.327 354.929C328.327 353.53 328.327 351.517 328.27 348.936C328.27 343.751 328.213 336.28 328.156 327.07L328.372 327.286L260.612 327.365C260.351 327.638 260.965 327.013 260.908 327.081V334.881C260.908 337.463 260.908 340.01 260.908 342.511C260.908 347.526 260.908 352.393 260.908 357.044L260.635 356.771L309.201 356.896L323.29 356.975H327.065H328.054H328.395C328.293 356.986 328.19 356.986 328.088 356.975H327.133H323.415L309.394 357.055L260.635 357.191H260.351V356.907C260.351 352.256 260.351 347.39 260.351 342.375V327.081C260.283 327.081 260.908 326.512 260.647 326.774L328.327 326.819H328.543V327.024C328.543 336.291 328.452 343.796 328.429 349.027C328.429 351.585 328.429 353.575 328.372 354.963C328.372 355.611 328.372 356.1 328.372 356.498C328.371 356.681 328.355 356.863 328.327 357.044Z" fill="#263238"/>
<path d="M297.364 342.056C297.364 342.056 297.296 341.806 297.159 341.386C296.969 340.804 296.599 340.298 296.102 339.941C295.743 339.682 295.326 339.516 294.887 339.458C294.448 339.401 294.002 339.453 293.589 339.612C293.089 339.798 292.658 340.133 292.354 340.571C292.05 341.009 291.887 341.529 291.887 342.062C291.887 342.595 292.05 343.116 292.354 343.554C292.658 343.992 293.089 344.326 293.589 344.513C294.003 344.665 294.448 344.715 294.886 344.657C295.323 344.6 295.741 344.437 296.102 344.183C296.599 343.826 296.969 343.32 297.159 342.739C297.296 342.318 297.307 342.056 297.364 342.056C297.421 342.056 297.455 342.318 297.364 342.796C297.232 343.472 296.866 344.08 296.329 344.513C295.923 344.843 295.439 345.063 294.923 345.153C294.408 345.242 293.878 345.198 293.384 345.024C292.77 344.809 292.238 344.409 291.861 343.878C291.485 343.347 291.282 342.713 291.282 342.062C291.282 341.412 291.485 340.777 291.861 340.246C292.238 339.716 292.77 339.315 293.384 339.1C293.877 338.928 294.406 338.884 294.921 338.971C295.436 339.059 295.92 339.275 296.329 339.6C296.867 340.036 297.234 340.649 297.364 341.329C297.455 341.806 297.398 342.068 297.364 342.056Z" fill="#263238"/>
<path d="M328.327 390.042C328.327 390.042 328.327 389.849 328.327 389.496C328.327 389.144 328.327 388.587 328.327 387.916C328.327 386.517 328.327 384.505 328.27 381.935C328.27 376.738 328.213 369.279 328.157 360.068L328.373 360.284L260.613 360.364L260.908 360.068V367.857C260.908 370.439 260.908 372.974 260.908 375.487C260.908 380.502 260.908 385.357 260.908 390.019L260.635 389.735L309.201 389.872L323.29 389.951H327.065H328.054C328.168 389.942 328.282 389.942 328.395 389.951H328.088H327.133H323.415L309.394 390.031L260.635 390.167H260.351V389.883C260.351 385.221 260.351 380.365 260.351 375.351V360.091L260.647 359.795L328.407 359.875H328.623V360.091C328.623 369.358 328.532 376.863 328.509 382.083C328.509 384.641 328.509 386.631 328.452 388.03C328.452 388.678 328.452 389.167 328.452 389.553C328.421 389.719 328.379 389.882 328.327 390.042Z" fill="#263238"/>
<path d="M297.364 375.055C297.364 375.055 297.296 374.794 297.159 374.373C296.969 373.791 296.599 373.285 296.102 372.929C295.741 372.675 295.323 372.512 294.886 372.455C294.448 372.397 294.003 372.447 293.589 372.599C293.089 372.785 292.658 373.12 292.354 373.558C292.05 373.996 291.887 374.516 291.887 375.05C291.887 375.583 292.05 376.103 292.354 376.541C292.658 376.979 293.089 377.314 293.589 377.5C294.001 377.657 294.447 377.71 294.885 377.654C295.323 377.599 295.741 377.437 296.102 377.182C296.602 376.823 296.973 376.313 297.159 375.726C297.296 375.305 297.307 375.055 297.364 375.055C297.421 375.055 297.455 375.317 297.364 375.783C297.236 376.464 296.869 377.077 296.329 377.511C295.922 377.84 295.437 378.058 294.922 378.145C294.406 378.233 293.877 378.187 293.384 378.012C292.77 377.797 292.238 377.396 291.861 376.865C291.485 376.335 291.282 375.7 291.282 375.05C291.282 374.399 291.485 373.764 291.861 373.234C292.238 372.703 292.77 372.302 293.384 372.087C293.878 371.914 294.408 371.869 294.923 371.959C295.439 372.049 295.923 372.269 296.329 372.599C296.869 373.034 297.236 373.647 297.364 374.327C297.455 374.794 297.398 375.055 297.364 375.055Z" fill="#263238"/>
<path d="M328.327 423.03C328.327 423.03 328.327 422.836 328.327 422.484C328.327 422.131 328.327 421.585 328.327 420.915C328.327 419.516 328.327 417.503 328.27 414.922C328.27 409.737 328.213 402.266 328.156 393.056L328.372 393.272L260.612 393.351C260.351 393.624 260.965 392.999 260.908 393.067V400.867C260.908 403.449 260.908 405.996 260.908 408.497C260.908 413.512 260.908 418.379 260.908 423.03L260.635 422.757L309.201 422.882L323.29 422.961H327.065H328.054H328.395C328.293 422.972 328.19 422.972 328.088 422.961H327.133H323.415L309.394 423.03L260.635 423.166H260.351V422.882C260.351 418.231 260.351 413.364 260.351 408.35V393.067C260.283 393.124 260.908 392.498 260.647 392.76L328.407 392.851H328.623V393.056C328.623 402.323 328.532 409.839 328.509 415.059C328.509 417.617 328.509 419.607 328.452 420.994C328.452 421.654 328.452 422.131 328.452 422.529C328.422 422.699 328.38 422.866 328.327 423.03Z" fill="#263238"/>
<path d="M297.364 408.043C297.364 408.043 297.296 407.792 297.159 407.372C296.969 406.79 296.599 406.284 296.102 405.928C295.742 405.671 295.324 405.506 294.886 405.449C294.448 405.391 294.002 405.442 293.589 405.598C293.089 405.784 292.658 406.119 292.354 406.557C292.05 406.995 291.887 407.515 291.887 408.048C291.887 408.581 292.05 409.102 292.354 409.54C292.658 409.978 293.089 410.312 293.589 410.499C294.002 410.654 294.448 410.705 294.886 410.648C295.324 410.59 295.742 410.426 296.102 410.169C296.599 409.812 296.969 409.306 297.159 408.725C297.296 408.304 297.307 408.043 297.364 408.043C297.421 408.043 297.455 408.304 297.364 408.782C297.231 409.461 296.865 410.072 296.329 410.51C295.92 410.835 295.436 411.052 294.921 411.139C294.406 411.227 293.877 411.183 293.384 411.01C292.77 410.795 292.238 410.395 291.861 409.864C291.485 409.334 291.282 408.699 291.282 408.048C291.282 407.398 291.485 406.763 291.861 406.232C292.238 405.702 292.77 405.301 293.384 405.086C293.877 404.914 294.406 404.87 294.921 404.957C295.436 405.045 295.92 405.261 296.329 405.586C296.867 406.022 297.234 406.635 297.364 407.315C297.455 407.792 297.398 408.054 297.364 408.043Z" fill="#263238"/>
<path d="M161.514 320.395H5.96979V428.294H161.514V320.395Z" fill="#263238"/>
<path d="M444.323 312.867H0V323.124H444.323V312.867Z" fill="#263238"/>
<path d="M19.7515 323.124H5.96979V428.294H19.7515V323.124Z" fill="#455A64"/>
<path d="M178.718 150.568C178.627 150.137 178.562 149.7 178.525 149.261C178.36 148.092 177.974 146.965 177.388 145.94C177.008 145.254 176.43 144.699 175.728 144.348C175.332 144.179 174.895 144.13 174.472 144.209C174.049 144.288 173.659 144.491 173.351 144.792C172.034 146.427 171.316 148.463 171.316 150.563C171.316 152.662 172.034 154.699 173.351 156.334C173.658 156.637 174.047 156.842 174.47 156.923C174.894 157.004 175.331 156.957 175.728 156.788C176.428 156.43 177.006 155.872 177.388 155.185C177.974 154.16 178.36 153.033 178.525 151.865C178.562 151.429 178.626 150.996 178.718 150.568C178.792 151.009 178.792 151.458 178.718 151.899C178.642 153.123 178.305 154.318 177.729 155.401C177.318 156.182 176.68 156.821 175.898 157.232C175.435 157.454 174.916 157.529 174.409 157.448C173.879 157.344 173.386 157.105 172.976 156.754C171.508 155.027 170.702 152.835 170.702 150.568C170.702 148.302 171.508 146.109 172.976 144.383C173.382 144.024 173.877 143.781 174.409 143.678C174.916 143.602 175.434 143.677 175.898 143.894C176.68 144.305 177.318 144.943 177.729 145.724C178.307 146.811 178.644 148.009 178.718 149.238C178.791 149.678 178.791 150.128 178.718 150.568Z" fill="#263238"/>
<path d="M129.63 128.338L126.218 196.473L155.487 199.225L157.102 182.68C157.102 182.68 167.336 185.227 170.52 175.71C172.51 169.626 174.284 121.993 174.284 121.993L129.63 128.338Z" fill="#FFBE9D"/>
<path d="M180.504 129.02C178.013 134.945 168.621 140.027 168.621 140.027L167.086 155.117C165.689 155.02 164.287 155.02 162.89 155.117C163.64 148.033 154.532 149.431 153.6 154.241C152.713 158.881 158 161.985 158 161.985C154.35 167.579 152.872 170.536 147.687 175.778C142.092 181.463 139.079 181.918 133.291 181.748L126.912 181.452C126.912 181.452 124.638 176.005 122.989 163.145C122.182 156.959 117.304 148.851 118.725 138.788C122.637 110.213 154.259 115.284 154.259 115.284C166.131 106.051 186.371 115.091 180.504 129.02Z" fill="#263238"/>
<path d="M178.718 150.648C176.56 151.064 174.367 151.277 172.169 151.285C169.982 151.479 167.783 151.479 165.596 151.285C167.752 150.876 169.941 150.666 172.135 150.659C174.325 150.465 176.528 150.461 178.718 150.648Z" fill="#263238"/>
<path d="M271.961 230.689L261.329 237.272L257.429 246.369V238.41C257.429 238.41 260.317 234.998 262.682 232.508C265.047 230.018 263.353 228.289 262.682 227.437C262.011 226.584 251.834 238.41 251.834 238.41V245.232C247.092 239.399 244.898 241.4 244.17 242.458C243.442 243.515 251.834 251.429 251.834 251.429V253.84L210.137 276.264L199.164 248.973L176.751 260.742L190.135 293.138C191.058 295.38 192.452 297.396 194.223 299.051C195.994 300.706 198.1 301.96 200.398 302.729C202.697 303.498 205.134 303.764 207.544 303.508C209.954 303.252 212.281 302.48 214.367 301.246L263.433 272.238L266.696 266.792C267.829 264.915 268.496 262.793 268.641 260.606L270.335 236.101C273.314 234.236 271.961 230.689 271.961 230.689Z" fill="#FFBE9D"/>
<path d="M210.341 276.298C209.351 280.135 207.971 283.861 206.225 287.419C207.229 283.586 208.608 279.861 210.341 276.298Z" fill="#EB996E"/>
<path d="M270.335 236.101C269.707 236.425 269.061 236.713 268.402 236.965C267.649 237.322 266.978 237.829 266.428 238.455C265.879 239.08 265.463 239.812 265.207 240.604C264.357 242.894 263.322 245.111 262.114 247.234C262.78 244.895 263.632 242.614 264.661 240.411C264.993 239.48 265.52 238.631 266.207 237.921C266.796 237.373 267.478 236.934 268.22 236.624C268.876 236.291 269.599 236.112 270.335 236.101Z" fill="#EB996E"/>
<path d="M270.176 239.979C269.991 240.004 269.815 240.07 269.659 240.172C269.504 240.274 269.373 240.41 269.277 240.57C268.948 241.207 268.527 242.208 268.14 243.276C267.713 244.629 267.212 245.958 266.639 247.256C266.641 245.805 266.963 244.372 267.583 243.06C267.95 242.103 268.419 241.188 268.982 240.331C269.085 240.189 269.217 240.07 269.37 239.984C269.523 239.897 269.693 239.845 269.869 239.831C270.085 239.831 270.187 239.945 270.176 239.979Z" fill="#EB996E"/>
<path d="M170.054 256.592L174.818 272.727L205.054 259.082C203.917 255.671 198.959 240.65 189.396 216.771C186.777 210.223 182.518 204.46 177.027 200.035C171.537 195.61 165 192.672 158.046 191.504C148.153 189.855 137.385 188.57 129.095 188.673C120.866 188.749 112.911 191.648 106.562 196.884C100.212 202.12 95.8516 209.377 94.209 217.441C91.6505 230.12 96.1307 238.501 93.2425 266.246L92.3214 336.03L173.056 338.998L170.054 256.592Z" fill="#EE4248"/>
<path d="M96.9949 265.507C96.9949 265.507 85.7717 266.166 81.3597 257.672C81.3597 257.672 93.4471 212.984 97.6658 207.719L96.9949 265.507Z" fill="#EE4248"/>
<path d="M190.92 221.273C190.631 221.497 190.308 221.673 189.964 221.797C188.975 222.156 187.935 222.351 186.883 222.376C185.23 222.368 183.584 222.158 181.982 221.751C180.117 221.33 178.036 220.705 175.705 220.318C174.49 220.172 173.267 220.107 172.044 220.125C170.72 220.23 169.408 220.447 168.121 220.773C165.266 221.549 162.524 222.696 159.968 224.184C157.204 225.685 154.396 227.459 151.405 229.21C148.337 231.115 145.049 232.642 141.615 233.759C138.086 234.852 134.317 234.911 130.755 233.929C127.525 232.884 124.515 231.254 121.875 229.119C119.339 227.152 117.133 225.083 115.052 223.195C113.154 221.426 111.141 219.785 109.025 218.283C106.014 216.032 102.503 214.542 98.7915 213.939C97.4205 213.862 96.0462 213.862 94.6752 213.939C95.0105 213.803 95.3622 213.711 95.7213 213.666C96.7513 213.502 97.7962 213.453 98.837 213.518C102.67 213.963 106.326 215.38 109.458 217.635C111.642 219.109 113.717 220.739 115.666 222.513C117.781 224.378 120.01 226.402 122.489 228.289C125.037 230.309 127.931 231.849 131.028 232.838C134.389 233.743 137.938 233.676 141.262 232.644C144.602 231.553 147.804 230.076 150.803 228.244C153.77 226.527 156.602 224.753 159.422 223.252C162.074 221.745 164.915 220.598 167.87 219.841C169.222 219.517 170.6 219.312 171.987 219.227C173.269 219.24 174.549 219.339 175.819 219.522C178.23 219.977 180.288 220.659 182.118 221.137C183.663 221.582 185.254 221.849 186.86 221.933C188.239 221.925 189.609 221.703 190.92 221.273Z" fill="#263238"/>
<path d="M170.588 276.957C169.047 276.039 167.345 275.422 165.574 275.138C163.644 274.91 161.69 275.018 159.797 275.456C157.637 275.888 155.306 276.673 152.747 277.31C148.357 278.439 143.76 278.501 139.341 277.492C135.929 276.696 134.099 275.616 134.155 275.502C134.212 275.388 136.191 276.105 139.511 276.639C143.817 277.372 148.228 277.198 152.463 276.127C154.953 275.502 157.33 274.74 159.592 274.342C161.609 273.934 163.685 273.911 165.71 274.274C167.081 274.518 168.384 275.053 169.531 275.843C170.327 276.468 170.645 276.912 170.588 276.957Z" fill="#263238"/>
<path d="M171.407 318.621C171.407 318.621 171.1 319.133 170.338 319.849C169.238 320.855 168.006 321.708 166.677 322.385C164.682 323.42 162.476 323.98 160.229 324.022C157.487 323.947 154.784 323.345 152.269 322.248C149.62 321.213 147.198 320.054 144.912 319.405C142.892 318.788 140.777 318.542 138.67 318.678C137.262 318.762 135.889 319.15 134.644 319.815C133.757 320.304 133.348 320.702 133.269 320.622C133.189 320.543 133.541 320.065 134.406 319.485C135.638 318.592 137.079 318.028 138.59 317.848C140.808 317.589 143.056 317.762 145.208 318.359C147.76 319.152 150.265 320.086 152.713 321.157C155.084 322.194 157.622 322.799 160.206 322.942C162.305 322.951 164.38 322.505 166.29 321.634C169.644 320.122 171.293 318.45 171.407 318.621Z" fill="#263238"/>
<g opacity="0.3">
<path opacity="0.3" d="M83.85 266.291C94.4251 268.452 105.284 266.291 116.053 265.632C122.591 265.245 129.834 264.495 134.997 268.554C139.09 271.738 140.682 277.094 141.922 282.143C146.47 301.405 147.255 318.609 148.267 338.361L95.9602 337.224L83.85 266.291Z" fill="black"/>
</g>
<path opacity="0.3" d="M97.6658 230.029L99.9286 262.641H93.0378L97.6658 230.029Z" fill="black"/>
<path d="M112.357 335.984L216.175 339.657C224.276 339.942 231.943 343.394 237.526 349.271C243.11 355.148 246.165 362.981 246.035 371.087L245.125 430H207.055L204.599 379.206L112.357 376.772V335.984Z" fill="#263238"/>
<path d="M147.175 389.849H136.964V427.225H147.175V389.849Z" fill="#455A64"/>
<path d="M51.2834 271.101V361.16C51.2864 366.831 53.5412 372.268 57.5521 376.277C61.5629 380.285 67.0016 382.537 72.6723 382.537H132.643V271.101C132.64 268.573 131.634 266.149 129.845 264.363C128.056 262.576 125.631 261.572 123.103 261.572H60.8123C58.2851 261.572 55.8614 262.576 54.0743 264.363C52.2873 266.15 51.2834 268.574 51.2834 271.101Z" fill="#455A64"/>
<path d="M213.355 389.849H67.3051C67.3232 385.639 69.0083 381.607 71.9919 378.636C74.9754 375.666 79.0142 373.998 83.2246 373.998H197.56C201.764 373.998 205.796 375.668 208.769 378.64C211.741 381.613 213.411 385.645 213.411 389.849H213.355Z" fill="#455A64"/>
<path d="M132.643 371.894C132.709 372.784 132.633 373.678 132.416 374.544C131.926 376.571 130.859 378.413 129.343 379.846C127.827 381.279 125.928 382.242 123.876 382.617C122.948 382.768 122.008 382.832 121.067 382.81H118.122H105H81.1209L73.9003 382.719H71.9331C71.7037 382.726 71.4743 382.704 71.2509 382.651C71.4765 382.615 71.7046 382.596 71.9331 382.594L73.9003 382.537L81.1209 382.435L105 382.321H121.067C121.98 382.356 122.894 382.303 123.796 382.162C125.393 381.886 126.901 381.236 128.197 380.263C130.12 378.842 131.51 376.815 132.143 374.509C132.62 372.849 132.563 371.883 132.643 371.894Z" fill="#263238"/>
<path d="M151.019 390.156C148.046 390.456 145.056 390.554 142.07 390.452C139.08 390.555 136.086 390.456 133.109 390.156C136.086 389.863 139.08 389.764 142.07 389.86C145.056 389.764 148.045 389.863 151.019 390.156Z" fill="#263238"/>
<path d="M195.457 383.333C195.315 382.968 195.224 382.586 195.184 382.196C195.036 381.457 194.843 380.388 194.615 379.001C194.149 376.215 193.478 372.178 192.75 367.221C192.341 364.742 192.011 361.979 191.465 359.102C191.318 358.385 191.181 357.658 191.033 356.907C190.885 356.157 190.601 355.452 190.385 354.701C190.271 354.337 190.169 353.951 190.055 353.564C189.942 353.177 189.771 352.825 189.623 352.427C189.316 351.676 189.043 350.915 188.714 350.153C187.27 347.039 185.444 344.117 183.278 341.454C180.913 338.625 178.161 336.145 175.102 334.085C172.058 332.002 168.714 330.391 165.187 329.31C161.913 328.27 158.511 327.689 155.078 327.581C148.46 327.433 142.433 327.467 137.408 327.399C132.382 327.331 128.311 327.274 125.491 327.206C124.081 327.206 122.989 327.138 122.239 327.092C121.856 327.104 121.474 327.066 121.101 326.979C121.473 326.883 121.855 326.841 122.239 326.853L125.491 326.74C128.299 326.671 132.382 326.615 137.408 326.558C142.433 326.501 148.426 326.399 155.112 326.49C158.652 326.565 162.163 327.143 165.539 328.207C169.185 329.298 172.638 330.951 175.773 333.107C178.932 335.222 181.767 337.784 184.188 340.715C186.404 343.468 188.265 346.49 189.726 349.709C190.055 350.482 190.328 351.278 190.635 352.04C190.772 352.427 190.92 352.802 191.067 353.177C191.215 353.553 191.283 353.951 191.397 354.314C191.613 355.088 191.818 355.838 192.023 356.589C192.227 357.339 192.307 358.101 192.443 358.863C192.955 361.808 193.228 364.548 193.58 367.027C194.229 372.019 194.717 376.067 195.07 378.864C195.229 380.263 195.354 381.355 195.422 382.094C195.496 382.503 195.508 382.921 195.457 383.333Z" fill="#455A64"/>
<path d="M11.1549 274.353C11.1549 274.353 9.31281 279.505 12.8378 283.234H20.1721C20.1721 283.234 19.524 274.911 11.1549 274.353Z" fill="#EE4248"/>
<path opacity="0.4" d="M11.1549 274.353C11.1549 274.353 9.31281 279.505 12.8378 283.234H20.1721C20.1721 283.234 19.524 274.911 11.1549 274.353Z" fill="black"/>
<path d="M23.6517 263.744C23.3447 263.38 17.0679 273.205 20.5929 283.234H27.5065C27.5065 283.234 30.2128 271.567 23.6517 263.744Z" fill="#EE4248"/>
<path d="M35.8983 274.353C33.6382 274.505 31.5187 275.504 29.963 277.15C28.4073 278.797 27.53 280.969 27.5064 283.234H34.4087C34.4087 283.234 37.4334 278.981 35.8983 274.353Z" fill="#EE4248"/>
<path d="M12.2692 282.848C9.88483 284.559 8.03549 286.913 6.93638 289.634C5.83727 292.356 5.53358 295.334 6.06065 298.221C7.83453 308.455 18.637 312.867 18.637 312.867H30.6107C30.6107 312.867 42.8004 307.489 42.5048 296.425C42.2091 285.361 34.9544 283.007 34.9544 283.007L12.2692 282.848Z" fill="#455A64"/>
<path d="M42.4593 295.185C42.1882 294.728 41.8553 294.311 41.4701 293.946C40.9133 293.501 40.2737 293.172 39.5885 292.977C38.9034 292.781 38.1863 292.724 37.4788 292.809C35.3612 293.21 33.3602 294.08 31.6228 295.356C30.5191 296.061 29.3501 296.659 28.1318 297.141C26.7877 297.652 25.3319 297.797 23.9132 297.562C20.9908 297.061 18.6598 295.492 16.4765 294.446C14.6189 293.362 12.4836 292.848 10.3362 292.968C8.90055 293.117 7.57136 293.793 6.6065 294.867C6.28408 295.29 6.0095 295.748 5.78778 296.231C5.79538 296.088 5.82215 295.947 5.86738 295.811C5.98522 295.402 6.1738 295.017 6.42456 294.673C7.37804 293.477 8.76157 292.702 10.2793 292.513C12.537 292.315 14.8008 292.819 16.7608 293.957C19.035 295.003 21.3092 296.516 24.0497 296.97C25.3711 297.197 26.7293 297.068 27.984 296.595C29.173 296.132 30.3152 295.557 31.3953 294.878C33.2087 293.591 35.2943 292.739 37.4902 292.388C38.2477 292.314 39.0122 292.399 39.7348 292.638C40.4574 292.877 41.1221 293.264 41.6861 293.775C41.9795 294.063 42.2184 294.402 42.3911 294.776C42.448 295.037 42.4821 295.174 42.4593 295.185Z" fill="#263238"/>
<path d="M42.63 297.857C42.3572 297.408 42.0286 296.996 41.6521 296.629C41.1037 296.182 40.4703 295.85 39.7901 295.655C39.1099 295.46 38.3971 295.404 37.6949 295.492C35.6006 295.895 33.623 296.761 31.9071 298.028C30.8321 298.738 29.6894 299.34 28.4958 299.825C27.1639 300.337 25.7186 300.483 24.3112 300.245C21.4116 299.745 19.1033 298.176 16.9428 297.13C15.1137 296.047 13.0042 295.533 10.8821 295.651C9.45569 295.807 8.13833 296.488 7.18648 297.562C6.86894 297.98 6.60177 298.434 6.3905 298.915C6.3905 298.915 6.3905 298.767 6.45873 298.494C6.58175 298.107 6.76602 297.742 7.00454 297.414C7.94272 296.221 9.30954 295.442 10.8138 295.242C13.0335 295.04 15.2613 295.529 17.193 296.641C19.399 297.687 21.7414 299.199 24.4022 299.654C25.7087 299.881 27.0522 299.751 28.2911 299.279C29.4625 298.817 30.586 298.242 31.6455 297.562C33.4376 296.274 35.5049 295.422 37.6836 295.071C38.4249 295.005 39.1719 295.094 39.8768 295.333C40.5818 295.572 41.229 295.955 41.7771 296.459C42.0654 296.745 42.3003 297.08 42.4708 297.448C42.5461 297.575 42.5999 297.713 42.63 297.857Z" fill="#263238"/>
<path d="M11.5529 297.789C11.5529 297.721 11.8713 297.516 12.292 297.857C12.4192 297.967 12.51 298.113 12.5527 298.275C12.5953 298.438 12.5877 298.609 12.5308 298.767C12.4608 298.962 12.3296 299.128 12.1569 299.242C11.9841 299.355 11.7791 299.41 11.5728 299.397C11.3664 299.384 11.1697 299.305 11.0124 299.171C10.855 299.037 10.7454 298.855 10.7001 298.653C10.6601 298.497 10.6633 298.334 10.7094 298.179C10.7555 298.025 10.8427 297.886 10.9616 297.778C11.371 297.437 11.7235 297.596 11.7007 297.664C11.678 297.732 11.4506 297.789 11.28 298.062C11.2432 298.13 11.2239 298.206 11.2239 298.284C11.2239 298.361 11.2432 298.437 11.28 298.505C11.3133 298.585 11.3662 298.655 11.4338 298.709C11.5014 298.762 11.5815 298.798 11.6666 298.812C11.7506 298.809 11.8324 298.785 11.9041 298.741C11.9758 298.697 12.035 298.636 12.076 298.562C12.114 298.499 12.1342 298.426 12.1342 298.352C12.1342 298.278 12.114 298.205 12.076 298.142C11.8258 297.88 11.5643 297.869 11.5529 297.789Z" fill="#263238"/>
<path d="M25.1186 293.468C25.1186 293.4 25.437 293.184 25.8691 293.536C25.9917 293.649 26.0786 293.795 26.119 293.957C26.1594 294.119 26.1516 294.289 26.0965 294.446C26.0247 294.639 25.8937 294.805 25.7222 294.919C25.5506 295.034 25.3473 295.091 25.1413 295.083C24.9358 295.063 24.7413 294.981 24.5846 294.846C24.4278 294.712 24.3165 294.532 24.2658 294.332C24.2245 294.175 24.2282 294.01 24.2765 293.855C24.3247 293.7 24.4156 293.562 24.5387 293.457C24.948 293.116 25.3005 293.275 25.2664 293.343C25.2323 293.411 25.0162 293.468 24.8457 293.741C24.8116 293.81 24.7939 293.886 24.7939 293.963C24.7939 294.04 24.8116 294.116 24.8457 294.184C24.879 294.264 24.9319 294.334 24.9995 294.388C25.0671 294.441 25.1472 294.477 25.2323 294.492C25.3165 294.49 25.3988 294.465 25.4707 294.422C25.5426 294.378 25.6016 294.315 25.6417 294.241C25.681 294.178 25.7018 294.105 25.7018 294.031C25.7018 293.957 25.681 293.884 25.6417 293.821C25.3915 293.559 25.13 293.548 25.1186 293.468Z" fill="#263238"/>
<path d="M38.2748 297.982C38.2748 297.914 38.5932 297.71 39.0253 298.051C39.148 298.163 39.2348 298.31 39.2753 298.471C39.3157 298.633 39.3078 298.803 39.2527 298.96C39.181 299.154 39.05 299.319 38.8784 299.434C38.7069 299.548 38.5036 299.605 38.2976 299.597C38.0935 299.578 37.9001 299.497 37.7435 299.365C37.5869 299.233 37.4747 299.056 37.422 298.858C37.3812 298.699 37.385 298.533 37.4332 298.376C37.4814 298.219 37.572 298.079 37.6949 297.971C38.1043 297.63 38.4568 297.789 38.4227 297.857C38.3885 297.926 38.1725 297.994 38.0019 298.255C37.9541 298.323 37.9245 298.401 37.9161 298.483C37.9077 298.566 37.9208 298.648 37.954 298.724C37.9872 298.8 38.0395 298.865 38.1057 298.915C38.1719 298.964 38.2497 298.996 38.3317 299.006C38.4159 299.004 38.4982 298.98 38.57 298.936C38.6419 298.892 38.7009 298.83 38.741 298.756C38.7803 298.693 38.8012 298.62 38.8012 298.545C38.8012 298.471 38.7803 298.398 38.741 298.335C38.5477 298.085 38.2976 298.062 38.2748 297.982Z" fill="#263238"/>
<path d="M384.409 272.409L388.309 312.867H408.026L412.745 272.409H384.409Z" fill="#455A64"/>
<path d="M384.409 267.178C383.195 268.694 382.541 270.581 382.555 272.523H414.599C414.755 271.548 414.667 270.55 414.344 269.618C414.02 268.685 413.471 267.847 412.745 267.178H384.409Z" fill="#263238"/>
<path d="M388.059 263.471L386.979 267.474L411.165 267.656L409.562 263.426L388.059 263.471Z" fill="#263238"/>
<path d="M384.045 282.541C384.045 282.916 386.319 302.94 386.319 302.94H410.414L412.689 282.575L384.045 282.541Z" fill="#EE4248"/>
</svg>
